<?xml version="1.0" standalone="no"?><!DOCTYPE svg PUBLIC "-//W3C//DTD SVG 1.1//EN" "http://www.w3.org/Graphics/SVG/1.1/DTD/svg11.dtd"><svg class="icon" width="200px" height="51.15px" viewBox="0 0 4004 1024" version="1.1" xmlns="http://www.w3.org/2000/svg"><path d="M1113.240768 234.446086c-84.703102 0-163.355982 37.813885-216.295421 104.366322v-104.366322h-63.527326v789.553914h63.527326V686.700148c52.939439 65.039882 133.104874 104.366322 216.295421 104.366322C1266.008863 791.06647 1391.55096 665.524372 1391.55096 512.756278c1.512555-154.28065-124.029542-278.310192-278.310192-278.310192z m0 494.605613c-116.466765 0-216.295421-99.828656-216.295421-216.295421 0-119.491876 96.803545-216.295421 216.295421-216.295421 116.466765 0 211.757755 96.803545 211.757755 216.295421 1.512555 119.491876-93.778434 216.295421-211.757755 216.295421zM1719.77548 234.446086c-154.28065 0-278.310192 125.542097-278.310192 278.310192 0 152.768095 125.542097 278.310192 278.310192 278.310192 152.768095 0 278.310192-125.542097 278.310192-278.310192 0-154.28065-124.029542-278.310192-278.310192-278.310192z m0 494.605613c-116.466765 0-216.295421-99.828656-216.295421-216.295421 0-119.491876 96.803545-216.295421 216.295421-216.295421 116.466765 0 211.757755 96.803545 211.757755 216.295421s-95.29099 216.295421-211.757755 216.295421zM2521.429838 629.223043c-9.075332 0-18.150665 4.537666-22.688331 12.100443-37.813885 55.964549-101.341211 89.240768-170.91876 89.240768-110.416544 0-205.707533-87.728213-216.295421-199.657312 0-16.638109 1.512555-42.351551 1.512556-42.351551 13.612999-110.416544 105.878877-193.60709 214.782865-193.60709 80.165436 0 122.516987 37.813885 167.893649 81.677991 7.562777 9.075332 16.638109 10.587888 21.175775 10.587888 10.587888 0 22.688331-7.562777 28.738553-18.150664 4.537666-9.075332 4.537666-18.150665 0-24.200887-49.914328-71.090103-130.079764-110.416544-217.807977-110.416543-152.768095 0-278.310192 125.542097-278.310192 278.310192 0 154.28065 125.542097 278.310192 278.310192 278.310192 92.265879 0 175.456425-43.864106 226.883309-119.491876 4.537666-6.050222 6.050222-15.125554 1.512556-22.688331-4.537666-10.587888-19.66322-19.66322-34.788774-19.66322zM2808.815362 494.605613L3040.236337 263.184638l-39.32644-39.32644-297.973413 296.460857V0h-63.527326v789.553914h63.527326V600.48449l63.527327-63.527326L3031.161004 801.654357l43.864107-42.351551z" fill="#808285" /><path d="M3338.209749 234.446086c-154.28065 0-278.310192 125.542097-278.310192 278.310192 0 152.768095 125.542097 278.310192 278.310192 278.310192 92.265879 0 175.456425-43.864106 226.883309-119.491876 4.537666-7.562777 6.050222-15.125554 1.512555-22.688331-6.050222-12.100443-21.175775-19.66322-34.788774-19.66322-9.075332 0-18.150665 4.537666-22.688331 12.100443-37.813885 55.964549-101.341211 89.240768-170.918759 89.240768-107.391433 0-199.657312-81.677991-214.782866-189.069424l467.379616 1.512556c10.587888-1.512555 25.713442-9.075332 25.713442-28.738553 0-155.793205-125.542097-279.822747-278.310192-279.822747z m-213.27031 243.521418c18.150665-104.366322 108.903988-181.506647 213.27031-181.506647 105.878877 0 195.119645 77.140325 210.245199 181.506647h-423.515509zM4000.70901 680.649926c-6.050222-9.075332-21.175775-15.125554-33.276218-13.612998-9.075332 1.512555-15.125554 6.050222-19.66322 13.612998-3.025111 6.050222-6.050222 10.587888-9.075333 15.125554-34.788774 46.889217-65.039882 52.939439-86.215657 52.939439-51.426883 0-83.190547-58.98966-83.190547-152.768095V294.948301h151.25554v-62.014771h-151.25554V89.240768H3705.760709v143.692762h-86.215657v62.014771h86.215657v328.22452c0 136.129985 74.115214 183.019202 143.692762 183.019203 57.477105 0 93.778434-24.200886 119.491876-55.96455 12.100443-15.125554 24.200886-31.763663 33.276219-49.914328 3.025111-6.050222 3.025111-12.100443-1.512556-19.66322z" fill="#808285" /><path d="M603.509601 276.797637c-7.562777-21.175775-28.738552-34.788774-51.426883-34.788774H54.451994c-22.688331 0-43.864106 13.612999-51.426883 34.788774-1.512555 6.050222-3.025111 12.100443-3.025111 19.66322v183.019202l1.512555 36.301329C10.587888 598.971935 54.451994 670.062038 121.004431 721.488922c1.512555 1.512555 3.025111 1.512555 3.025111 3.02511h1.512555c36.301329 25.713442 75.62777 43.864106 117.979321 52.939439 19.66322 4.537666 40.838996 6.050222 60.502216 6.050222 18.150665 0 37.813885-1.512555 55.964549-4.537666 1.512555 0 4.537666-1.512555 6.050222-1.512556h1.512555c40.838996-9.075332 80.165436-25.713442 113.441654-51.426883h1.512556c1.512555-1.512555 3.025111-1.512555 3.025111-3.025111 66.552437-49.914328 108.903988-122.516987 117.97932-205.707533l1.512556-36.30133V296.460857c1.512555-6.050222 0-12.100443-1.512556-19.66322z m-128.567208 190.581979L332.762186 605.022157c-7.562777 7.562777-18.150665 12.100443-28.738552 12.100443s-21.175775-4.537666-28.738553-12.100443l-142.180207-136.129986a42.502806 42.502806 0 0 1-1.512555-58.98966c16.638109-16.638109 42.351551-16.638109 58.98966-1.512555l113.441655 108.903988 113.441654-108.903988c16.638109-16.638109 42.351551-15.125554 58.98966 1.512555 15.125554 16.638109 15.125554 42.351551-1.512555 57.477105z" fill="#EF4056" /></svg>