<svg width="25" height="25" viewBox="0 0 25 25" fill="none" xmlns="http://www.w3.org/2000/svg">
<path d="M4.10156 23.4375H1.36719C1.21179 23.4375 1.06275 23.3758 0.952867 23.2659C0.842983 23.156 0.78125 23.007 0.78125 22.8516V4.49219C0.78125 4.33679 0.842983 4.18775 0.952867 4.07787C1.06275 3.96798 1.21179 3.90625 1.36719 3.90625H4.10156C4.25696 3.90625 4.406 3.96798 4.51588 4.07787C4.62577 4.18775 4.6875 4.33679 4.6875 4.49219V22.8516C4.6875 23.007 4.62577 23.156 4.51588 23.2659C4.406 23.3758 4.25696 23.4375 4.10156 23.4375Z" fill="#3AACFF"/>
<path d="M11.7196 10.1567V7.61727C11.7196 7.46185 11.6579 7.31279 11.548 7.20289C11.4381 7.09299 11.289 7.03125 11.1336 7.03125H6.05477C5.89935 7.03125 5.75029 7.09299 5.64039 7.20289C5.53049 7.31279 5.46875 7.46185 5.46875 7.61727V10.1567H11.7196Z" fill="#3AACFF"/>
<path d="M5.46875 20.3125V22.8519C5.46875 23.0073 5.53049 23.1564 5.64039 23.2663C5.75029 23.3762 5.89935 23.4379 6.05477 23.4379H11.1336C11.289 23.4379 11.4381 23.3762 11.548 23.2663C11.6579 23.1564 11.7196 23.0073 11.7196 22.8519V20.3125H5.46875Z" fill="#3AACFF"/>
<path d="M11.7196 11.7188H5.46875V18.751H11.7196V11.7188Z" fill="#3AACFF"/>
<path d="M16.6016 23.4375H13.0859C12.9305 23.4375 12.7815 23.3758 12.6716 23.2659C12.5617 23.156 12.5 23.007 12.5 22.8516V2.14844C12.5 1.99304 12.5617 1.844 12.6716 1.73412C12.7815 1.62423 12.9305 1.5625 13.0859 1.5625H16.6016C16.757 1.5625 16.906 1.62423 17.0159 1.73412C17.1258 1.844 17.1875 1.99304 17.1875 2.14844V22.8516C17.1875 23.007 17.1258 23.156 17.0159 23.2659C16.906 23.3758 16.757 23.4375 16.6016 23.4375Z" fill="#3AACFF"/>
<path d="M18.0176 4.91672L19.4825 22.8772C19.489 22.9559 19.5113 23.0326 19.5482 23.1024C19.5851 23.1723 19.6357 23.234 19.6971 23.2839C19.7584 23.3337 19.8292 23.3706 19.9052 23.3923C19.9812 23.414 20.0608 23.4202 20.1392 23.4104L23.6626 22.9709C23.8127 22.9522 23.9496 22.8761 24.0449 22.7588C24.1402 22.6414 24.1864 22.4917 24.1739 22.341L22.7051 4.45334C22.6987 4.37565 22.6767 4.30003 22.6407 4.23091C22.6046 4.16179 22.5551 4.10056 22.4951 4.05082C22.4351 4.00107 22.3657 3.9638 22.2911 3.94119C22.2165 3.91859 22.1381 3.91109 22.0606 3.91916L18.5386 4.28586C18.3866 4.30228 18.2471 4.37744 18.1498 4.4953C18.0524 4.61315 18.005 4.76438 18.0176 4.91672Z" fill="#3AACFF"/>
</svg>
